# xmcd CD database file
#
# Track frame offsets:
#	150
#	18724
#	40373
#	61512
#	82649
#	98922
#	116735
#	133373
#	152149
#	169167
#	187536
#	205618
#
# Disc length: 2953 seconds
#
# Revision: 0
# Processed by: cddbd v1.5.2PL0 Copyright (c) Steve Scherf et al.
# Submitted via: CDex 1.70beta2
#
DISCID=920b870c
DTITLE=大城蘭 - LAN
DYEAR=2008
DGENRE=Jazz
TTITLE0=Vaya Con Dios
TTITLE1=Vincent (Starry, Starry Night)
TTITLE2=One
TTITLE3=Sunshine On My Shoulders
TTITLE4=Love Is Here To Stay
TTITLE5=Mona Lisa
TTITLE6=Home Of The Blues
TTITLE7=アカシアの雨がやむとき
TTITLE8=Side By Side
TTITLE9=Sails
TTITLE10=笛を吹く少年
TTITLE11=手紙
EXTD=YEAR: 2008
EXTT0=
EXTT1=
EXTT2=
EXTT3=
EXTT4=
EXTT5=
EXTT6=
EXTT7=
EXTT8=
EXTT9=
EXTT10=
EXTT11=
PLAYORDER=
